<svg width="11" height="14" viewBox="0 0 11 14" fill="none" xmlns="http://www.w3.org/2000/svg">
<path d="M4.93981 13.044C4.62709 13.0441 4.31516 13.0127 4.00874 12.9502C3.41786 12.8291 2.8566 12.593 2.35698 12.2551C1.6142 11.7536 1.03279 11.0475 0.683184 10.2224C0.564996 9.94292 0.474765 9.65247 0.413813 9.35525C0.288657 8.74085 0.288657 8.10751 0.413813 7.49311C0.534844 6.90223 0.771039 6.34097 1.10892 5.84135C1.61036 5.09857 2.31645 4.51715 3.14164 4.16755C3.42107 4.04936 3.71153 3.95913 4.00874 3.89818C4.62315 3.77302 5.25648 3.77302 5.87088 3.89818C6.46176 4.01921 7.02302 4.25541 7.52265 4.59329C8.26542 5.09472 8.84684 5.80082 9.19644 6.62601C9.31463 6.90544 9.40486 7.19589 9.46581 7.49311C9.58888 8.09772 9.59082 8.72074 9.4715 9.32611C9.36917 9.84681 9.17675 10.3456 8.90291 10.8002C8.49279 11.485 7.91205 12.0517 7.21743 12.445C6.5228 12.8383 5.73804 13.0447 4.93981 13.044ZM6.53116 6.25997C6.4563 6.25991 6.38217 6.27464 6.31301 6.3033C6.24386 6.33196 6.18104 6.374 6.12817 6.427L4.51337 8.03967C4.40639 8.14683 4.34637 8.2921 4.34651 8.44352C4.34664 8.59493 4.40692 8.7401 4.51408 8.84707C4.62124 8.95405 4.76651 9.01407 4.91793 9.01393C5.06934 9.0138 5.21451 8.95352 5.32148 8.84636L6.12817 8.03967L6.93486 7.23369C7.0155 7.15428 7.07061 7.05262 7.09313 6.94171C7.11565 6.8308 7.10457 6.71569 7.06129 6.61112C7.01801 6.50654 6.94451 6.41727 6.85019 6.35471C6.75588 6.29216 6.64504 6.25917 6.53187 6.25997H6.53116Z" fill="#7E8392"/>
<path d="M2.67847 1.56031C2.67847 1.40009 2.74212 1.24643 2.85541 1.13313C2.96871 1.01983 3.12237 0.956184 3.2826 0.956184L6.90738 0.956184C7.0676 0.956184 7.22126 1.01983 7.33456 1.13313C7.44786 1.24643 7.51151 1.40009 7.51151 1.56031C7.51151 1.72054 7.44786 1.8742 7.33456 1.9875C7.22126 2.10079 7.0676 2.16444 6.90738 2.16444H3.2826C3.12237 2.16444 2.96871 2.10079 2.85541 1.9875C2.74212 1.8742 2.67847 1.72054 2.67847 1.56031V1.56031Z" fill="#7E8392"/>
<path d="M8.87918 2.68858C8.99621 2.57155 9.15494 2.5058 9.32044 2.5058C9.48594 2.5058 9.64467 2.57155 9.7617 2.68858L10.5588 3.48565C10.6758 3.60268 10.7415 3.76141 10.7415 3.92691C10.7415 4.09241 10.6758 4.25114 10.5588 4.36817C10.4417 4.48519 10.283 4.55094 10.1175 4.55094C9.95201 4.55094 9.79329 4.48519 9.67626 4.36817L8.87918 3.57109C8.76216 3.45406 8.69641 3.29534 8.69641 3.12983C8.69641 2.96433 8.76216 2.80561 8.87918 2.68858Z" fill="#7E8392"/>
</svg>
